<svg xmlns="http://www.w3.org/2000/svg" viewBox="0 0 241.19 170.3"><defs><style>.cls-1{fill:#070707;}.cls-2{fill:#faeb4d;}.cls-3{fill:#da3c35;}</style></defs><g id="Layer_2" data-name="Layer 2"><g id="Layer_1-2" data-name="Layer 1"><path class="cls-1" d="M107,170.3,78,123.06,18.69,168.84l21.9-56.12L0,96.63,32.86,75.85l-8.6-23.19L2.53,16.84,64.58,49.93,69.91,33,76.18,0,98.09,27,108,46.84,128.51,2.78,139,25l13,23.37,20.12-35.66,15.07,36.4,20.5-16.5,21.43-13.25L208.05,60.92l31.67,6.16-31.9,17.21,6.45,6,17.92,16.56-41.45-6.81,1.55,36.37-30.23-23L162,129.13l3.3,33.4-46.94-43.62Zm-27.81-54L105,158.22l10.63-48.13,43.93,40.82-2.14-21.56v-.12l.13-25,29.77,22.65-1.38-32.24,31.93,5.24L200,83.28l26.23-14.15-25-4.86,16.46-32.46-7.41,4.58L185.32,56.48,171.5,23.12,152,57.71,134.87,27l-6.33-13.4L108.13,57.41l-14-28.17L78.85,10.54,74.33,34.23l-7,22.36L15.13,28.76l13.36,22.1,10,26.89L10.08,95.69l36.44,14.45L29,155.09Z"/><polygon class="cls-2" points="5.04 96.16 35.66 76.8 26.34 51.66 8.83 22.8 41.2 40.06 65.94 53.26 72.14 33.55 77.52 5.27 96.03 27.99 108.06 52.13 128.53 8.18 136.95 26 152 53.01 171.82 17.89 186.26 52.77 208.92 34.51 223.4 25.56 204.63 62.59 232.98 68.11 203.92 83.78 212.7 91.97 225.02 103.36 188.32 97.33 189.79 131.63 159.79 108.81 159.68 129.24 162.4 156.72 116.97 114.5 105.98 164.26 78.57 119.68 23.84 161.96 43.56 111.43 5.04 96.16"/><path class="cls-1" d="M29.74,91.94a.58.58,0,0,1-.56-.69L36.94,54A.58.58,0,0,1,38,53.82l2.64,5.38a.66.66,0,0,1,.06.34l-3.39,24a.52.52,0,0,1-.14.3l-7,7.88A.57.57,0,0,1,29.74,91.94Zm8-36.12-7,33.56,5.48-6.15,3.33-23.68Z"/><polygon class="cls-1" points="37.5 54.07 29.74 91.36 36.76 83.48 40.15 59.46 37.5 54.07"/><path class="cls-1" d="M40.77,99.36h0a.62.62,0,0,1-.43-.25L37,94.3a.57.57,0,0,1,0-.69L50.58,77.44,68.67,58.73a.56.56,0,0,1,.56-.15.55.55,0,0,1,.41.42l1.66,7a.59.59,0,0,1-.13.52l-30,32.61A.59.59,0,0,1,40.77,99.36ZM38.22,94l2.62,3.85L70.11,66l-1.35-5.72L51.43,78.21Z"/><polygon class="cls-1" points="69.08 59.13 51.02 77.81 37.5 93.98 40.77 98.78 70.74 66.17 69.08 59.13"/><path class="cls-1" d="M46.72,147.14l-2.46-4.25,17.53-7.2,2.33,7.36Zm-.81-3.69,1.38,2.38,15.36-3.61-1.58-5Z"/><polygon class="cls-1" points="45.08 143.17 47.01 146.48 63.38 142.63 61.43 136.46 45.08 143.17"/><path class="cls-1" d="M13.46,157.12a.6.6,0,0,1-.28-.08l-8.43-4.86a.58.58,0,0,1-.28-.57.57.57,0,0,1,.41-.48l16.88-4.85,7.17-40.45a.57.57,0,0,1,.46-.47.57.57,0,0,1,.59.27l2.34,3.83a.64.64,0,0,1,.08.36l-4.78,41.92a.57.57,0,0,1-.38.48l-13.58,4.87A.64.64,0,0,1,13.46,157.12Zm-7-5.26,7,4.06,13-4.66,4.71-41.37-1.44-2.37-7,39.31a.56.56,0,0,1-.4.45Z"/><polygon class="cls-1" points="22.27 146.73 5.04 151.68 13.46 156.55 27.05 151.68 31.82 109.76 29.49 105.93 22.27 146.73"/><path class="cls-1" d="M76.56,83.94l3.2-28.4.57.06A24.78,24.78,0,0,1,86,57h0c6.59,2.5,8.77,6,8.86,6.1l.85,1.36-1.52-.52c-3.48-1.2-7.75-2.08-8.57-1.42L84.27,63.6l-2.8,20.07Zm4.21-27.12-2.92,25.9,2.61-.14L83.19,63l1.7-1.36c1.27-1,5.17-.13,7.68.6a21,21,0,0,0-7-4.16h0A24.69,24.69,0,0,0,80.77,56.82Z"/><path class="cls-1" d="M85.79,57.53a24.78,24.78,0,0,0-5.52-1.36L77.21,83.33,81,83.12,83.73,63.3l1.52-1.23c1.58-1.27,9.12,1.33,9.12,1.33S92.27,60,85.79,57.53Z"/><path class="cls-1" d="M97.12,119.85l-4.22-6.12,4.78-2L91,83.57l9.75-8.16,1.48-7.11-.62-4L97.35,53.6l8.09,7.57c.13.24,3.14,6,2.72,11.82S103,83.85,102.79,84.06l-.1.08-6.2,4.11,6.33,28.87Zm-2.47-5.6,2.86,4.14,4-1.91L95.2,87.73l6.8-4.51c.46-.49,4.65-5.13,5-10.31s-2.19-10.4-2.55-11.12l-4.17-3.87L102.73,64l.65,4.3-1.6,7.7-9.51,8L99,112.45Z"/><path class="cls-1" d="M104.93,61.44l-6.11-5.68,3.34,8.36.64,4.19-1.54,7.41-9.63,8.06,6.72,28.33L93.78,114l3.54,5.13,4.84-2.32L95.84,88l6.53-4.33s4.82-5,5.22-10.71S104.93,61.44,104.93,61.44Z"/><path class="cls-1" d="M66.81,126.78a.58.58,0,0,1-.39-.15l-3.08-2.77a.53.53,0,0,1-.18-.54.57.57,0,0,1,.38-.43l6.8-2.21,6-32a.59.59,0,0,1,.42-.45l10.83-2.8a.58.58,0,0,1,.67.32l1.42,3.3a.59.59,0,0,1-.32.77L80,93.38l-4.63,30a.57.57,0,0,1-.37.45l-8,3A.63.63,0,0,1,66.81,126.78Zm-2-3.11,2.09,1.88,7.37-2.72,4.64-30a.59.59,0,0,1,.36-.45L88.43,89l-1-2.3-10,2.59-6,32a.6.6,0,0,1-.39.44Z"/><polygon class="cls-1" points="89.19 89.31 79.5 92.96 74.82 123.26 66.81 126.21 63.72 123.44 70.84 121.12 76.95 88.81 87.77 86.01 89.19 89.31"/><path class="cls-1" d="M135.58,112.9a1.73,1.73,0,0,1-1.49-.86l-1.46-2.54a1.72,1.72,0,0,1,.85-2.46l5.32-2.13L121.58,48a1.71,1.71,0,0,1,.43-1.72,1.73,1.73,0,0,1,1.73-.42L129,47.44a1.74,1.74,0,0,1,1.15,1.18l8.7,30.66v0L146.52,110a1.73,1.73,0,0,1-1.52,2.14l-9.27.78Zm6.65-5.89a1.69,1.69,0,0,1-.69.51L137,109.33l5.66-.48ZM125.81,50.06l12.54,41.48L135.51,80.2l-8.44-29.75Z"/><polygon class="cls-1" points="137.17 79.75 128.47 49.09 123.23 47.46 140.9 105.92 134.12 108.64 135.58 111.18 144.85 110.39 137.17 79.75"/><path class="cls-1" d="M104.9,117.4a1.72,1.72,0,0,1-1.6-1.1l-2.74-7a1.72,1.72,0,0,1,2-2.3l5.42,1.4,7.35-18.79a1.73,1.73,0,0,1,1.28-1.06l10.84-2.07a1.74,1.74,0,0,1,1.77.75l2.63,4a1.74,1.74,0,0,1,.14,1.61,1.71,1.71,0,0,1-1.25,1l-10.35,2-7,19.29a1.71,1.71,0,0,1-1.35,1.11l-6.88,1.08Zm.08-6.25,1,2.62,4.52-.71,7-19.25a1.73,1.73,0,0,1,1.28-1.1L127.6,91l-.61-.93-8.77,1.67-7.56,19.33a1.74,1.74,0,0,1-2,1Z"/><polygon class="cls-1" points="116.97 90.21 109.05 110.42 102.16 108.64 104.9 115.68 111.79 114.6 119.14 94.4 130.44 92.18 127.8 88.14 116.97 90.21"/><path class="cls-1" d="M117,85.72a1.72,1.72,0,0,1-1.64-2.26l5.88-18a1.72,1.72,0,0,1,1.64-1.19h0a1.72,1.72,0,0,1,1.63,1.21l2.42,7.86a1.79,1.79,0,0,1,0,.92l-2.42,9.86A1.71,1.71,0,0,1,123,85.38l-5.89.33Zm5.83-14.08-3.42,10.5,2.1-.12,2-8.17Z"/><polygon class="cls-1" points="125.27 73.8 122.85 65.94 116.97 84 122.85 83.66 125.27 73.8"/><polygon class="cls-1" points="157.72 83.14 156.95 78.71 157.03 72.03 158.96 65.75 161.71 61.65 164.66 59.17 167.66 57.73 170.82 56.98 176.18 56.08 178.38 49.26 175.51 43.2 163.93 49.09 154.6 54.01 151.56 64.7 151.56 85.36 159.16 87.44 157.72 83.14"/><path class="cls-1" d="M160,88.28l-9-2.48,0-21.26,3.11-10.92,9.54-5,12.12-6.16,3.22,6.8-2.38,7.37-5.7,1-3.07.73L165,59.65,162.14,62l-2.65,4-1.89,6.12-.07,6.6.75,4.28Zm-7.9-3.36,6.13,1.68-1.11-3.36-.77-4.43.09-7,2-6.43,2.85-4.22,3.07-2.56,3.12-1.47,3.16-.76,5.05-.85,2-6.27L175.25,44,164.19,49.6l-9.1,4.8-3,10.38Z"/><polygon class="cls-1" points="165.6 93.26 148.1 85.36 148.75 88.28 152.39 95.41 155.03 98.16 163.47 101.84 176.4 102.83 176.99 93.66 173.11 90.46 165.6 93.26"/><path class="cls-1" d="M176.93,103.44l-13.69-1.08-8.63-3.8-2.73-2.89-3.69-7.27-.89-4,18.32,8.27,7.6-2.83,4.36,3.59Zm-13.32-2.17,12.25.94.53-8.29L173,91.11l-7.42,2.77-16.67-7.53.39,1.73,3.57,7,2.49,2.61Z"/><polygon class="cls-1" points="199.84 41.18 195.86 37.16 191.87 61.44 196.35 57.39 199.84 41.18"/><path class="cls-1" d="M191.87,62a.52.52,0,0,1-.27-.07.55.55,0,0,1-.29-.59l4-24.28a.57.57,0,0,1,1-.31l4,4a.55.55,0,0,1,.15.53l-3.49,16.21a.61.61,0,0,1-.18.31l-4.47,4A.58.58,0,0,1,191.87,62Zm4.37-23.65L192.7,59.91l3.12-2.82,3.4-15.73Z"/><polygon class="cls-1" points="223.81 45.89 221.61 40.24 201.08 55.4 194.68 66.6 198.44 70.56 214.23 53.09 223.81 45.89"/><path class="cls-1" d="M198.45,71.41,194,66.68l6.77-11.74,21.14-15.61,2.62,6.76-9.93,7.46Zm-3.06-4.9,3,3.21,15.37-17,9.32-7-1.77-4.54L201.52,55.79Z"/><polygon class="cls-1" points="190.18 96.65 184.17 96.92 187.39 100.86 192.94 101.84 194.04 98.68 194.04 75.91 191.46 73.36 190.18 96.65"/><path class="cls-1" d="M193.32,102.49l-6.24-1.1-4.08-5,6.63-.3,1.33-24,3.66,3.61,0,23.2Zm-5.62-2.16,4.86.86.91-2.61V76.15L192,74.67,190.72,97.2l-5.38.25Z"/><polygon class="cls-1" points="205.99 98.51 208.58 101.84 217.52 101.84 215.9 98.68 205.99 98.51"/><path class="cls-1" d="M218.46,102.41H208.3l-3.5-4.5,11.46.2Zm-9.6-1.14h7.72l-1-2-8.37-.14Z"/><path class="cls-1" d="M238.7,80.21h-5.34a.61.61,0,0,1-.35-.11l-3.67-2.79a.57.57,0,0,1-.22-.47.54.54,0,0,1,.26-.46L234.46,73l2.66-41.74a.57.57,0,0,1,.38-.51.6.6,0,0,1,.61.15L241,34.09a.56.56,0,0,1,.15.41l-1.91,45.16A.58.58,0,0,1,238.7,80.21Zm-5.15-1.14h4.6L240,34.7l-1.86-2-2.59,40.7a.6.6,0,0,1-.26.44l-4.64,3Z"/><polygon class="cls-1" points="237.69 31.34 235.01 73.36 229.69 76.86 233.36 79.64 238.7 79.64 240.62 34.48 237.69 31.34"/><path class="cls-1" d="M231.51,98.88a6.62,6.62,0,0,1-3.85-1,25.82,25.82,0,0,1-2.08-2.57.58.58,0,0,1,.06-.74l9-9.2,1-.71a.6.6,0,0,1,.67,0c.6.44,2.6,1.92,2.94,2.8a14.89,14.89,0,0,1,.51,5.5,10,10,0,0,1-1.35,2.86,6.88,6.88,0,0,1-1.86,1.55,16.79,16.79,0,0,1-4.18,1.43A7.27,7.27,0,0,1,231.51,98.88ZM226.8,95a21.7,21.7,0,0,0,1.63,2c.63.57,2.82.8,3.81.64a15.35,15.35,0,0,0,3.8-1.29,6.31,6.31,0,0,0,1.47-1.2,9,9,0,0,0,1.16-2.37,13.51,13.51,0,0,0,0-2.62,13.67,13.67,0,0,0-.42-2.3A10.18,10.18,0,0,0,236,85.85l-.59.41Z"/><path class="cls-1" d="M236,85.14l-.93.65-9,9.2a25.7,25.7,0,0,0,2,2.47c.81.74,3.21,1,4.28.79a16.08,16.08,0,0,0,4-1.36A6.55,6.55,0,0,0,238,95.51a9.23,9.23,0,0,0,1.25-2.61,14.14,14.14,0,0,0,0-2.76,14.74,14.74,0,0,0-.46-2.45C238.46,86.9,236,85.14,236,85.14Z"/><path class="cls-1" d="M6.18,152.57A1.71,1.71,0,0,1,5,152.13a1.73,1.73,0,0,1-.56-1.51l12.37-91.9a1.7,1.7,0,0,1,1.31-1.44L36.05,53a1.72,1.72,0,0,1,2.09,2l-5.6,30.63L61.11,53.54A1.69,1.69,0,0,1,62.3,53a1.71,1.71,0,0,1,1.26.45l5.81,5.35a1.72,1.72,0,0,1,.12,2.42L39.69,94.13l7.89,11.6a1.74,1.74,0,0,1,.11.18L63,135.68a1.71,1.71,0,0,1,.07,1.4,1.67,1.67,0,0,1-1,1l-15.7,6A1.78,1.78,0,0,1,45,144a1.71,1.71,0,0,1-.89-1l-6.47-20.38-7.23-11.87L24,147a1.72,1.72,0,0,1-1.27,1.37L6.6,152.51A1.52,1.52,0,0,1,6.18,152.57ZM20.09,60.35,8.22,148.55l12.54-3.21,7-39.71A1.71,1.71,0,0,1,31,105L40.67,121a1.84,1.84,0,0,1,.17.38l6,18.84L59,135.54l-14.34-28-8.6-12.64a1.72,1.72,0,0,1,.14-2.12L65.79,60.15l-3.28-3L31,92.51a1.71,1.71,0,0,1-2,.4,1.73,1.73,0,0,1-.94-1.86L34.28,57Z"/><polygon class="cls-3" points="18.55 58.95 36.45 54.69 29.74 91.36 62.39 54.69 68.21 60.03 37.5 93.98 46.16 106.7 61.43 136.46 45.73 142.44 39.2 121.86 29.49 105.93 22.27 146.73 6.18 150.84 18.55 58.95"/><path class="cls-1" d="M109.05,112.14H109l-5.54-.26a1.7,1.7,0,0,1-1.2-.58l-1.35-1.51a1.7,1.7,0,0,1-.36-1.67l17.41-54.64a1.23,1.23,0,0,1,.14-.31l3.65-6.55a1.83,1.83,0,0,1,1.53-.88,1.72,1.72,0,0,1,1.5.92l1.31,2.5a1.69,1.69,0,0,1,.11.27l10.5,32.66,0,.1,5.87,23.31a1.73,1.73,0,0,1-1,2l-6.78,2.72a1.7,1.7,0,0,1-1.38,0,1.68,1.68,0,0,1-.91-1l-5.86-19-8.39,1.6-7.56,19.33A1.73,1.73,0,0,1,109.05,112.14Zm-4.73-3.67,3.58.17,7.46-19.06a1.73,1.73,0,0,1,1.28-1.06l10.84-2.07a1.73,1.73,0,0,1,2,1.18l5.76,18.72,3.66-1.47-5.5-21.79L123.12,51.18l-2,3.51L104.1,108.23Zm23.36-23.42h-9.26a1.72,1.72,0,0,1-1.65-2.23l4.69-15.22a1.66,1.66,0,0,1,1.66-1.22,1.75,1.75,0,0,1,1.64,1.23l4.57,15.22a1.72,1.72,0,0,1-1.65,2.22Zm-6.93-3.44h4.62L123.09,74Z"/><path class="cls-3" d="M135,82.61,124.53,50l-1.3-2.49L119.57,54l-17.41,54.63,1.35,1.52,5.54.26L117,90.21l10.83-2.07,6.32,20.5,6.78-2.72Zm-16.61.72,4.69-15.22,4.57,15.22Z"/><path class="cls-1" d="M172,99.16h-.15c-1.41-.12-13.91-1.24-18.07-3.24-3.36-1.61-7.2-9.75-7.24-9.84-1.47-3.19-1.86-10.92-1.9-11.79a1.56,1.56,0,0,1,0-.31c.17-1.29,1.72-12.67,3.25-16.35,1.15-2.74,5.54-8.16,6-8.76a1.56,1.56,0,0,1,.35-.33,50.63,50.63,0,0,1,6.55-4c3.2-1.24,12.44-2.46,13.49-2.6a1.74,1.74,0,0,1,1.88,2.18L174,51.82A1.74,1.74,0,0,1,172.7,53c-2.06.39-7.85,1.65-9.94,2.8a9.73,9.73,0,0,0-4.74,4.9c-1.75,4.38-3.34,13.2-2.78,18,.19,1.6,1.31,4.59,2.14,5.34,1,.89,5.29,2.33,8,3.07l8,1.62a1.72,1.72,0,0,1,1.36,2l-1.11,7A1.72,1.72,0,0,1,172,99.16ZM148.09,74.28c.11,2.3.59,8.22,1.58,10.36,1.48,3.2,4.3,7.56,5.6,8.18,2.68,1.28,10.85,2.31,15.28,2.76l.6-3.76-6.54-1.32c-1.34-.36-7.57-2.11-9.53-3.86-1.76-1.58-3-5.66-3.25-7.5-.66-5.53,1-14.81,3-19.68a13.08,13.08,0,0,1,6.27-6.64c2.4-1.32,7.61-2.49,9.91-3l1.17-4.11a70.33,70.33,0,0,0-10.1,2,46.9,46.9,0,0,0-5.62,3.45c-1.36,1.69-4.59,5.87-5.37,7.73C150,61.68,148.56,70.79,148.09,74.28Z"/><path class="cls-3" d="M174.56,43.68l-2.18,7.67s-7.66,1.45-10.45,3a11.31,11.31,0,0,0-5.51,5.77c-1.76,4.42-3.51,13.54-2.88,18.84.2,1.73,1.39,5.26,2.69,6.42C158,86.92,165,88.81,165,88.81l8.16,1.65-1.11,7s-13.48-1.15-17.47-3.07c-2.2-1.05-5.4-6.8-6.42-9-1.38-3-1.75-11.15-1.75-11.15S148,61.87,149.5,58.3c1.08-2.59,5.78-8.35,5.78-8.35a52.81,52.81,0,0,1,6.18-3.77C164.57,45,174.56,43.68,174.56,43.68Z"/><path class="cls-1" d="M215.9,100.4h0l-9.91-.17a1.74,1.74,0,0,1-1.54-1l-8.74-19.28L193,77.27l-1.08,19.48a1.71,1.71,0,0,1-1.64,1.62l-6,.27a1.75,1.75,0,0,1-1.3-.5,1.72,1.72,0,0,1-.5-1.3l2.86-55.44a1.71,1.71,0,0,1,1-1.48l7.86-3.54a1.75,1.75,0,0,1,1.74.19,1.71,1.71,0,0,1,.68,1.6L194.17,57,216.6,36.75a1.72,1.72,0,0,1,2.27,0l2.59,2.21a1.71,1.71,0,0,1,.07,2.56l-3.73,4-3.9,4.14-.14.11c-2.44,1.91-7.08,5.87-9,8.64a41.15,41.15,0,0,1-7,7.74l-.67.62,5,5.67a2.48,2.48,0,0,1,.19.26l15.07,25.15a1.73,1.73,0,0,1-1.48,2.61Zm-8.79-3.6,5.72.1L199.44,74.55l-6-6.81a1.73,1.73,0,0,1,.1-2.4l1.93-1.79a38,38,0,0,0,6.51-7.15c2.54-3.69,8.31-8.31,9.63-9.34.24-.26,2-2.12,3.72-4l2.56-2.73-.06,0L193,62.72a1.72,1.72,0,0,1-2.86-1.5l2.62-20.44-4.1,1.84L186,95.12l2.55-.12,1.2-21.73a1.72,1.72,0,0,1,2.93-1.13l5.65,5.58a1.68,1.68,0,0,1,.36.51Z"/><path class="cls-3" d="M187,41.49,194.89,38l-3,23.49L217.76,38l2.59,2.21c-.06.06-7.57,8-7.64,8.11s-6.72,5.2-9.35,9c-2.82,4.1-5.05,5.8-8.68,9.22l6.15,6.93L215.9,98.68,206,98.51l-8.88-19.57-5.65-5.58-1.28,23.29-6,.27Z"/><path class="cls-1" d="M230.31,77.64A1.73,1.73,0,0,1,228.59,76L228,53.84v-.15l.38-6.41a1.45,1.45,0,0,1,0-.29l1.12-4.86,2-10.78a1.7,1.7,0,0,1,2-1.37l3.81.74a1.72,1.72,0,0,1,1.39,1.77l-2,40.51.63,1.26a1.72,1.72,0,0,1-1.27,2.46l-5.53.89A1.24,1.24,0,0,1,230.31,77.64Zm1.1-23.82L232,73.9l1.35-.21a2.93,2.93,0,0,1,0-.41l1.94-39.47-.64-.12-1.71,9.15-1.11,4.78Z"/><polygon class="cls-3" points="237.03 32.41 233.22 31.66 231.19 42.52 230.06 47.38 229.69 53.79 230.31 75.91 235.84 75.03 235.01 73.36 237.03 32.41"/><path class="cls-1" d="M230.66,97.38a7.89,7.89,0,0,1-2.75-.5l-.17-.07a6.49,6.49,0,0,1-1.91-1.35,6.58,6.58,0,0,1-1-2.73,10.55,10.55,0,0,1,0-3.17,10.33,10.33,0,0,1,1.67-3.41A7.88,7.88,0,0,1,229,84.22a15.31,15.31,0,0,1,3.86-.58h.22l2.71.54.31.24a8.07,8.07,0,0,1,2,2,5,5,0,0,1,.52,3.71l0,.19c-.28,1.66-1.33,4.08-4.73,6.16A6.14,6.14,0,0,1,230.66,97.38Zm-1.41-3.67a3.75,3.75,0,0,0,2.83-.13c1.79-1.1,2.91-2.45,3.14-3.81l0-.21a1.69,1.69,0,0,0-.13-1.42,5.52,5.52,0,0,0-.77-.75l-1.5-.3a16.32,16.32,0,0,0-2.51.31,5.13,5.13,0,0,0-1.19.93,7.13,7.13,0,0,0-1,2,7.05,7.05,0,0,0,0,1.83,5.58,5.58,0,0,0,.29,1.09C228.66,93.37,229,93.55,229.25,93.71Z"/><path class="cls-3" d="M233,85.36a16.75,16.75,0,0,0-3.29.45,6.34,6.34,0,0,0-1.87,1.43,8.81,8.81,0,0,0-1.32,2.7,8.73,8.73,0,0,0,0,2.5,5.26,5.26,0,0,0,.66,1.93,7.14,7.14,0,0,0,1.39.91A5.51,5.51,0,0,0,233,95c2.63-1.6,3.68-3.46,3.94-5a3.6,3.6,0,0,0-.3-2.77,7.62,7.62,0,0,0-1.53-1.5Z"/><path class="cls-1" d="M64.48,124.23a1.7,1.7,0,0,1-1.7-2l9.54-68.45a1.69,1.69,0,0,1,.23-.65c1.53-2.52,2.51-2.83,2.83-2.94,3.15-1,11.07-1.74,14.85-.75,11.67,3,15.08,11.87,15.22,12.24a1.78,1.78,0,0,1,.1.51c0,.86.44,8.46-.38,11.22C103.62,78.6,96.56,83,93.61,84.67l6.42,27a1.73,1.73,0,0,1-1,2l-4.58,1.88a1.7,1.7,0,0,1-1.46-.06,1.75,1.75,0,0,1-.88-1.17L86.46,88.13l-8,2.08-5.91,31.23a1.71,1.71,0,0,1-1.32,1.36l-6.36,1.39A1.55,1.55,0,0,1,64.48,124.23Zm11.2-69.55L66.53,120.3l2.83-.62,5.9-31.19a1.7,1.7,0,0,1,1.26-1.34l10.82-2.8a1.72,1.72,0,0,1,2.11,1.3l5.58,26,1.31-.55L90,84.18a1.73,1.73,0,0,1,.9-1.93c2.65-1.35,9.81-5.74,11-9.78.48-1.59.42-6.7.26-9.75-.56-1.29-3.74-7.54-12.77-9.9-3-.77-10-.17-12.76.65A7.88,7.88,0,0,0,75.68,54.68Zm1.53,30.83A1.72,1.72,0,0,1,75.5,83.6L78.56,56a1.73,1.73,0,0,1,2-1.51c.83.15,8.21,1.52,11.55,4.12l.55.43c2.44,1.87,3.13,2.55,4.39,7,1.4,4.91-.5,10.5-1.68,11.55-.73.65-7.52,5.55-10.91,6.69a30.41,30.41,0,0,1-7.19,1.26Zm4.56-27.27L79.15,81.88a22.18,22.18,0,0,0,4.23-.9C86,80.11,92,75.89,93,75.07A12.82,12.82,0,0,0,93.75,67c-1-3.53-1.17-3.66-3.18-5.21L90,61.31C88.24,59.94,84.36,58.83,81.77,58.24Zm12.47,18h0Z"/><path class="cls-3" d="M103.83,62.33s-3.09-8.32-14-11.17c-3.37-.88-10.92-.22-13.9.72-.69.22-1.88,2.19-1.88,2.19l-9.54,68.44,6.36-1.39L77,88.81,87.77,86l6,28,4.57-1.88L91.63,83.78s10.2-5.17,11.89-10.82C104.28,70.42,103.83,62.33,103.83,62.33Zm-9.59,14c-.61.54-7.26,5.31-10.31,6.33a28.16,28.16,0,0,1-6.72,1.18l3.06-27.62S88,57.54,91.07,60c2.66,2.08,3.08,2.13,4.34,6.53S94.85,75.73,94.24,76.28Z"/></g></g></svg>