<svg xmlns="http://www.w3.org/2000/svg" viewBox="0 0 48.98 49.65"><defs><style>.cls-1{fill:#dda139;}</style></defs><g id="Layer_2" data-name="Layer 2"><g id="Logo"><g id="Layer_2-2" data-name="Layer 2"><g id="Layer_1-2" data-name="Layer 1-2"><path class="cls-1" d="M48.91,17.87a.6.6,0,0,0-.1-.32,60.18,60.18,0,0,0-3.57-5,35.48,35.48,0,0,0-5.32-5.43A32.2,32.2,0,0,0,33,3,54.69,54.69,0,0,0,26.09.45L24.7.05c-.08,0-.15-.07-.18.05h0L24.43,0c-1.87.51-3.7,1.05-5.5,1.71a35.68,35.68,0,0,0-6.46,3.06,31.77,31.77,0,0,0-7.21,6.12,58.51,58.51,0,0,0-5,6.68.43.43,0,0,0-.09.26c0,.89-.11,1.78-.11,2.67a45.85,45.85,0,0,0,.34,6.73A30.89,30.89,0,0,0,4.26,38.8a57.27,57.27,0,0,0,5.1,7.44.53.53,0,0,0,.23.16,55.61,55.61,0,0,0,6.65,2.19,33.75,33.75,0,0,0,6.63,1,29.63,29.63,0,0,0,4.8-.15,38.46,38.46,0,0,0,4.86-.9A63.6,63.6,0,0,0,39.4,46.4a.63.63,0,0,0,.3-.21l.43-.56a52.94,52.94,0,0,0,4.44-6.37A31.53,31.53,0,0,0,48.76,25.7c.07-.89.12-1.78.15-2.66A49.53,49.53,0,0,0,48.91,17.87Zm-.47,5.91c-.07,1.25-.17,2.48-.33,3.71a30.61,30.61,0,0,1-2.82,9.45,41.39,41.39,0,0,1-4,6.44c-.62.82-1.26,1.62-1.89,2.44a.61.61,0,0,1-.28.2,60.43,60.43,0,0,1-7.31,2.24A35.12,35.12,0,0,1,27.5,49a30.17,30.17,0,0,1-4.14.16,31.66,31.66,0,0,1-5.23-.63A52.8,52.8,0,0,1,9.87,46a.61.61,0,0,1-.24-.18,56.4,56.4,0,0,1-5-7.31,31.3,31.3,0,0,1-3.16-7.91,30.47,30.47,0,0,1-.69-3.93A40.19,40.19,0,0,1,.48,22v-.82h0C.52,20.14.52,19.06.58,18a.5.5,0,0,1,.08-.26,56,56,0,0,1,5.47-7.09,31.2,31.2,0,0,1,7.29-5.9,37.61,37.61,0,0,1,6.45-2.87c1.47-.51,2.94-1,4.47-1.36a.51.51,0,0,1,.3,0,58.72,58.72,0,0,1,7.94,2.76,32.28,32.28,0,0,1,7,4.17,33.54,33.54,0,0,1,5.23,5.29,60,60,0,0,1,3.57,5,.56.56,0,0,1,.1.28C48.52,19.92,48.53,21.85,48.44,23.78Z"/><path class="cls-1" d="M25.52,21.3l-.07.12-1,1.3s0,0,0,0l-.66-.94a5.28,5.28,0,0,1-.37-.55,1.66,1.66,0,0,1-.09-1.53,3.44,3.44,0,0,1,.25-.51c.3-.45.61-.89.92-1.34l.08.1.59.87a6.87,6.87,0,0,1,.44.74A1.7,1.7,0,0,1,25.52,21.3Z"/><path class="cls-1" d="M43.79,26.42a2.21,2.21,0,0,1-.73,1.33,3.57,3.57,0,0,1-1.42.73c-.49.13-1,.21-1.46.32a2.73,2.73,0,0,0-.41.1.22.22,0,0,0,0,.44,1,1,0,0,0,.24,0,10.87,10.87,0,0,0,2.25-.55c.21-.08.41-.18.63-.28a.45.45,0,0,1,0,.28,3.13,3.13,0,0,1-.73,1.72,2.59,2.59,0,0,1-1.59.82c-.41.08-.83.12-1.25.19a1,1,0,0,0-.34.12.23.23,0,0,0-.12.15.19.19,0,0,0,.15.21.91.91,0,0,0,.33,0,7.32,7.32,0,0,0,2.48-.55l.08,0H42a1.38,1.38,0,0,1-.18.93,2.55,2.55,0,0,1-1.24,1,3.88,3.88,0,0,1-1.71.34h-.71c-.2,0-.32.1-.32.25v0a.29.29,0,0,0,.31.27h1.12a5.26,5.26,0,0,0,1.47-.24h.06c0,.1,0,.21-.08.31a3.2,3.2,0,0,1-.78,1.1,3,3,0,0,1-1.58.73,7.08,7.08,0,0,1-1.59.09h-.21a.29.29,0,0,0-.18.16.26.26,0,0,0,.14.35h.93A5.3,5.3,0,0,0,39,36.59h.08a.66.66,0,0,1,0,.15A2.49,2.49,0,0,1,38,38a4.24,4.24,0,0,1-1.6.55,10,10,0,0,1-2.79,0,21.48,21.48,0,0,1-4.42-1.09.72.72,0,0,1-.23-.12l.42-.1a8.2,8.2,0,0,0,2.08-.74,4.47,4.47,0,0,0,2.15-2.34,5.74,5.74,0,0,0,.33-2.6,16.22,16.22,0,0,0-.66-3.06c-.17-.67-.35-1.35-.51-2a2.5,2.5,0,0,1,0-1.09,1.36,1.36,0,0,1,.66-1,2.33,2.33,0,0,1,.93-.31.74.74,0,0,1,.26,0c1,.29,2,.68,2.94,1.06l1.59.62a3.34,3.34,0,0,0,1.37.17A1.59,1.59,0,0,0,42,24.62,4,4,0,0,0,41.89,23c-.13-.67-.27-1.34-.4-2a.49.49,0,0,1,0-.21h0l0,.06c.43.75.85,1.5,1.26,2.26a10,10,0,0,1,.83,1.79A3.47,3.47,0,0,1,43.79,26.42Z"/><path class="cls-1" d="M32,12.24l-.11,0a1.46,1.46,0,0,0-.95.83,4.92,4.92,0,0,0-.37,1.2q-1.08,5.3-2.17,10.58c0,.06,0,.13-.05.18a.35.35,0,0,1-.11-.1,7.83,7.83,0,0,0-1.85-1.59.39.39,0,0,1-.21-.37V21.49a.86.86,0,0,1,.05-.23,2.22,2.22,0,0,0-.07-1.82,6.13,6.13,0,0,0-.46-.78c-.17-.24-.35-.47-.51-.7a2.75,2.75,0,0,1-.51-1.16.9.9,0,0,0-.08-.23c-.06-.1-.14-.1-.19,0a.48.48,0,0,0-.07.21A2.71,2.71,0,0,1,23.81,18c-.23.32-.46.65-.67,1a2.59,2.59,0,0,0-.44,1.09,2.44,2.44,0,0,0,.1,1.11,1.8,1.8,0,0,1,.08.39v1.48a.26.26,0,0,1-.13.25,8.43,8.43,0,0,0-2,1.73l-.07.05-.47-2.16q-.66-3.3-1.34-6.59c-.17-.8-.33-1.61-.51-2.41a5.6,5.6,0,0,0-.3-.81,1.43,1.43,0,0,0-.95-.81l-.07,0a.36.36,0,0,1,.11-.1c.31-.19.61-.39.93-.55a1.22,1.22,0,0,1,.9-.1,1.46,1.46,0,0,1,.6.35.75.75,0,0,1,.19.39l.39,2.15c.22,1.25.45,2.5.68,3.75a.62.62,0,0,0,.07.23.26.26,0,0,0,.27.18.28.28,0,0,0,.22-.27v-.2c-.38-2-.74-4.08-1.12-6.12a1.47,1.47,0,0,1,.51-1.48l.07-.06L22,9.61c0,.17.07.32.07.46.11,1.12.22,2.22.33,3.36s.22,2.26.33,3.4a.85.85,0,0,0,0,.17.25.25,0,0,0,.23.17.24.24,0,0,0,.25-.19,1.31,1.31,0,0,0,0-.28c0-.48-.09-.94-.14-1.45-.07-.66-.14-1.33-.2-2-.09-.87-.15-1.72-.25-2.55a1.2,1.2,0,0,1,.48-1.23l.67-.54a2.82,2.82,0,0,0,.71-.67.46.46,0,0,0,.09.15,5.66,5.66,0,0,0,.44.4c.24.2.5.38.75.58a3,3,0,0,1,.31.31.91.91,0,0,1,.25.66c0,.43-.06.85-.1,1.28-.09.83-.17,1.65-.25,2.48l-.28,2.46a.76.76,0,0,0,0,.3.23.23,0,0,0,.24.19.25.25,0,0,0,.25-.2,2,2,0,0,0,0-.26c.12-1.27.25-2.55.37-3.82l.3-3a2.08,2.08,0,0,0,0-.3c.43.33.84.62,1.23.94a1.42,1.42,0,0,1,.48,1.47c-.38,2-.74,4.08-1.11,6.12a.67.67,0,0,0,0,.2.27.27,0,0,0,.2.28.3.3,0,0,0,.3-.19,1.05,1.05,0,0,0,.05-.19c.12-.67.25-1.34.36-2,.23-1.26.47-2.52.68-3.78a1.05,1.05,0,0,1,.86-.89,1.41,1.41,0,0,1,.41,0A3.88,3.88,0,0,1,32,12.24Z"/><path class="cls-1" d="M22.81,23.84a2.64,2.64,0,0,1,0,.63,4.05,4.05,0,0,1-.68,1.71c-.3.43-.6.78-1,1.23s-.73.9-1.1,1.35l-.09.07v0A5.68,5.68,0,0,1,20.71,26,6.57,6.57,0,0,1,22.81,23.84Z"/><path class="cls-1" d="M29,28.77a.06.06,0,0,0-.05,0l-1.28-1.53A8.2,8.2,0,0,1,26.82,26a4.24,4.24,0,0,1-.64-2.13v0a6.74,6.74,0,0,1,2.15,2.23A5.31,5.31,0,0,1,29,28.77Z"/><path class="cls-1" d="M33.42,31.69a10.27,10.27,0,0,0-.36-2c-.21-.77-.44-1.52-.66-2.33a6.24,6.24,0,0,1-.27-1.83,1.81,1.81,0,0,1,.94-1.55l.12-.1a3.45,3.45,0,0,0-1.11,0,1.17,1.17,0,0,0-1,1,3.05,3.05,0,0,0,0,.74c.09.68.21,1.35.3,2A2.78,2.78,0,0,1,30.5,30a4.75,4.75,0,0,1-1.06.78l-.14,0v0l0-.13a4.45,4.45,0,0,0-.94-1.91c-.27-.33-.55-.64-.81-1s-.66-.77-.95-1.18a4.88,4.88,0,0,1-.91-2.73c0-.51,0-1,0-1.5v-.18a3.35,3.35,0,0,0-.79,1.41.91.91,0,0,1-.15.33.16.16,0,0,1-.22.09.2.2,0,0,1-.09-.09,1,1,0,0,1-.13-.34,3.06,3.06,0,0,0-.78-1.35h0v.21c0,.51,0,1,0,1.45a4.91,4.91,0,0,1-1,2.81c-.27.36-.57.71-.86,1.06s-.68.8-1,1.21a4.14,4.14,0,0,0-.77,1.66.84.84,0,0,1-.05.2,4.33,4.33,0,0,1-1.34-1,2.75,2.75,0,0,1-.68-2.21c.07-.58.17-1.15.25-1.72a3,3,0,0,0,0-1.12,1.14,1.14,0,0,0-.88-1,2.35,2.35,0,0,0-.83-.06l-.41,0A.39.39,0,0,0,16,24a1.7,1.7,0,0,1,.85,1.14,4.25,4.25,0,0,1,.05.79,7.07,7.07,0,0,1-.31,1.65c-.24.85-.51,1.68-.7,2.53a7,7,0,0,0-.21,2.88,3.79,3.79,0,0,0,1.17,2.3,4.78,4.78,0,0,0,1.63,1,9.14,9.14,0,0,0,2.17.57.89.89,0,0,1,.48.25,11,11,0,0,0,2.42,1.75,1.68,1.68,0,0,0,1.72,0A10.39,10.39,0,0,0,28,37a.61.61,0,0,1,.34-.17c.31-.05.62-.1.92-.17a6.91,6.91,0,0,0,2.23-.87,3.76,3.76,0,0,0,1.66-2A5.36,5.36,0,0,0,33.42,31.69Zm-7.49,5.69a2.38,2.38,0,0,1-1.23,1.15.55.55,0,0,1-.47,0,2.42,2.42,0,0,1-1.17-1.13.52.52,0,0,1,0-.51c.12-.2.23-.39.36-.58a.56.56,0,0,0,.1-.28c0-.3.07-.59.11-.88a1.72,1.72,0,0,1,.07-.21.42.42,0,0,1,.33-.31,1.85,1.85,0,0,1,1,0,.51.51,0,0,1,.37.4,5.72,5.72,0,0,0,.12.83.7.7,0,0,0,.19.69,3.3,3.3,0,0,1,.23.41A.45.45,0,0,1,25.93,37.38Zm1.58-5.1a2.82,2.82,0,0,1-1.11,1.77,4.29,4.29,0,0,1-.92.49l-.21-.16a1.24,1.24,0,0,0-1.6,0c-.25.19-.17.2-.48.06a2.88,2.88,0,0,1-1.76-2.15,3.88,3.88,0,0,1,.19-2.13,6.94,6.94,0,0,1,.51-1c.14-.28.31-.51.46-.8A3.83,3.83,0,0,0,23,27a1,1,0,0,1,.08-.29.27.27,0,0,1,.31-.23.27.27,0,0,1,.14.07l.09.06a1.24,1.24,0,0,1,.06-.29,9.65,9.65,0,0,1,.51-1.66,1.18,1.18,0,0,1,.16-.29.25.25,0,0,1,.34-.08.23.23,0,0,1,.11.15,1.45,1.45,0,0,1,.07.35,6.59,6.59,0,0,0,1,2.72c.31.51.61,1,.9,1.47a5.54,5.54,0,0,1,.7,1.75A3.94,3.94,0,0,1,27.51,32.28Z"/><path class="cls-1" d="M20.12,37.34l-.23.1a21.3,21.3,0,0,1-4.14,1.05,10.3,10.3,0,0,1-2.77.1,4.48,4.48,0,0,1-1.75-.51,2.53,2.53,0,0,1-1.3-1.51h.16a6.71,6.71,0,0,0,2.32.2h.06a.25.25,0,0,0,.16-.17.28.28,0,0,0-.18-.34h-.93a4.69,4.69,0,0,1-1.74-.34,1.74,1.74,0,0,1-.4-.23,3,3,0,0,1-1.05-1.26c-.05-.12-.08-.26-.13-.4h.08a6.34,6.34,0,0,0,2,.3h.48a.58.58,0,0,0,.19,0,.26.26,0,0,0,0-.51h-.27A5.32,5.32,0,0,1,9,33.65a2.86,2.86,0,0,1-1.45-.83,1.62,1.62,0,0,1-.42-1.3h.11a6.44,6.44,0,0,0,2,.51,4,4,0,0,0,.51,0,.89.89,0,0,0,.31-.08.2.2,0,0,0,.08-.08.18.18,0,0,0-.08-.23,1.07,1.07,0,0,0-.39-.14c-.39-.07-.8-.12-1.19-.18-.1,0-.19-.06-.28-.06a2.63,2.63,0,0,1-2-2.22,1.58,1.58,0,0,1-.06-.32v-.22H6.2a8.57,8.57,0,0,0,2.32.67,3.11,3.11,0,0,0,.44.07.87.87,0,0,0,.36-.05.14.14,0,0,0,.11-.09.17.17,0,0,0-.07-.24.73.73,0,0,0-.31-.14c-.39-.08-.77-.13-1.15-.22A4.68,4.68,0,0,1,6.46,28a2.26,2.26,0,0,1-1.19-1.53A3.07,3.07,0,0,1,5.39,25,6.33,6.33,0,0,1,6,23.53c.41-.76.83-1.5,1.25-2.26a4.73,4.73,0,0,1,.35-.56c0,.28-.09.53-.14.79-.13.67-.28,1.34-.4,2a2.8,2.8,0,0,0,0,1.08A1.65,1.65,0,0,0,8.94,26a5,5,0,0,0,1.72-.45c1.14-.46,2.28-.94,3.46-1.31l.13,0a1.63,1.63,0,0,1,1.72.51,1.32,1.32,0,0,1,.36.93,4.52,4.52,0,0,1-.13,1.32c-.21.8-.44,1.59-.66,2.38a11.85,11.85,0,0,0-.45,2.36,5.54,5.54,0,0,0,.31,2.39,4.46,4.46,0,0,0,2.35,2.51,8.33,8.33,0,0,0,2.11.71l.17,0Z"/><path class="cls-1" d="M36,44.05l-.05.2a4.71,4.71,0,0,1-.92,0,8.9,8.9,0,0,1-2.41-.71c-.51-.2-1-.45-1.59-.67a6.35,6.35,0,0,0-1.89-.38,5.21,5.21,0,0,0-2.07.34l-1.31.47a2.9,2.9,0,0,1-2.13,0c-.38-.14-.76-.26-1.14-.41a5.64,5.64,0,0,0-4.16,0c-.53.19-1.08.42-1.59.65a9.76,9.76,0,0,1-2.09.66,4.48,4.48,0,0,1-1.21.07,0,0,0,0,1,0,0,.28.28,0,0,1,.05-.39c.18-.24.33-.48.51-.75h.09a4,4,0,0,0,1.77-.29c.49-.2,1-.43,1.44-.65a7.72,7.72,0,0,1,1.34-.51,4.67,4.67,0,0,1,1.18-.1,9.79,9.79,0,0,1,4.27,1,.79.79,0,0,0,.81,0,10,10,0,0,1,2.88-.94,8.12,8.12,0,0,1,2.31-.06,5.49,5.49,0,0,1,1.24.36l1.42.62a6.58,6.58,0,0,0,2.68.59Z"/><path class="cls-1" d="M24.3,40.45v1.92l-.21-.09a11,11,0,0,0-3.16-.94,7.39,7.39,0,0,0-2.3,0,6.43,6.43,0,0,0-1.37.51c-.4.2-.8.4-1.21.58a4.31,4.31,0,0,1-1.43.4h-.51l.46-2a.2.2,0,0,1,.11,0,6.63,6.63,0,0,0,2.52-.47c.38-.14.76-.3,1.13-.48a5.05,5.05,0,0,1,2.42-.51,11.14,11.14,0,0,1,1.89.32,2.92,2.92,0,0,1,1.12.51A5.44,5.44,0,0,0,24.3,40.45Z"/><path class="cls-1" d="M35.31,42.85l-.14,0a3.06,3.06,0,0,1-1.3-.2c-.51-.19-1-.4-1.53-.61a10.11,10.11,0,0,0-1.83-.69,5.23,5.23,0,0,0-.87-.13,10.1,10.1,0,0,0-4.72,1,1.69,1.69,0,0,1-.27.12v-2A4.61,4.61,0,0,0,25.89,40a7.7,7.7,0,0,1,1.42-.41,9.47,9.47,0,0,1,1.58-.26,4.8,4.8,0,0,1,2.3.43,13.94,13.94,0,0,0,2.61.92c.33.08.68.12,1.05.18Z"/><path class="cls-1" d="M11.82,7.65,13.46,9.1,12.69,7l.66-.44,1.53,1.53h0l-.66-2,.57-.3L15.69,9l-.48.27-1.7-1.65,0,0c.23.75.51,1.48.81,2.23l-.47.34L11.26,8.08A5.93,5.93,0,0,1,11.82,7.65Z"/><path class="cls-1" d="M40.06,15l-.28-.48,2.67-1.81c.12.19.24.36.34.54a.24.24,0,0,1,0,.21l-.87,1.75a1.77,1.77,0,0,0-.15.31c.61-.29,1.2-.63,1.82-1l.32.62L41,16.63q-.13-.25-.24-.51a.37.37,0,0,1,0-.22l.92-1.73a.49.49,0,0,0,.08-.24Z"/><path class="cls-1" d="M18.13,4.38c.23-.06.45-.14.66-.19s.64-.18,1-.24a1.29,1.29,0,0,1,.48,0,.8.8,0,0,1,.59.7.77.77,0,0,1-.37.89,1.67,1.67,0,0,0-.16.12h0a5.17,5.17,0,0,1,.51.42c.23.24.43.51.67.79a5.88,5.88,0,0,1-.59.11.26.26,0,0,1-.16-.09c-.2-.2-.39-.41-.58-.61L20,6.14A.57.57,0,0,0,19.27,6l.36,1.27-.51.16C18.78,6.44,18.47,5.42,18.13,4.38Zm1,1.13c.31-.09.6-.16.88-.26a.35.35,0,0,0,.2-.45h0a.32.32,0,0,0-.37-.28h0c-.3,0-.59.13-.91.21Z"/><path class="cls-1" d="M30.05,4l.51.13c.1,0,.11.1.14.18l.41,1.87c0,.1,0,.19.07.29.27-.62.47-1.27.72-1.92l.56.2-1.15,3H31.2c-.14,0-.32-.07-.4-.18s-.06-.27-.08-.41l-.36-1.71a.12.12,0,0,0,0-.08c-.23.62-.38,1.26-.58,1.9l-.51-.13Z"/><path class="cls-1" d="M31.84,8,33.1,5a9.57,9.57,0,0,1,1.44.7A1,1,0,0,1,35,6.91a2.42,2.42,0,0,1-.87,1.42,1.11,1.11,0,0,1-1.24.15Zm.74-.27.59.27a.52.52,0,0,0,.57-.11,2.37,2.37,0,0,0,.63-1.12.54.54,0,0,0-.2-.6,3.68,3.68,0,0,0-.71-.37Z"/><path class="cls-1" d="M7.66,11.82l.42-.54.14.1,1.35,1.09a3.89,3.89,0,0,1,.41.4.9.9,0,0,1,.17,1,2,2,0,0,1-.51.7.94.94,0,0,1-1,.19,4.09,4.09,0,0,1-.51-.26c-.51-.3-1-.6-1.48-.91l-.12-.09L6.88,13l.2.13,1.3.86.24.15A.61.61,0,0,0,9.47,14a.71.71,0,0,0,.11-.21.43.43,0,0,0-.1-.51,4.59,4.59,0,0,0-.41-.36L7.83,12Z"/><path class="cls-1" d="M39.57,14.28l-.37-.51.42-.66-.76-.95-.71.3L37.74,12a23.12,23.12,0,0,1,3.18-1.31c.14.16.28.33.41.51v.16s0,0,0,0a24.85,24.85,0,0,1-1.66,2.71Zm.34-1.69a3.88,3.88,0,0,0,.59-1.05L39.4,12Z"/><path class="cls-1" d="M24.38,4.64h1.16l.06-1.22h.64L26,6.63h-.55l0-1.41a7.1,7.1,0,0,0-1.13,0V6.6l-.52,0L23.7,3.41h.63C24.38,3.8,24.35,4.2,24.38,4.64Z"/><path class="cls-1" d="M35.85,10.33l.24-.74-.93-.65-.6.48-.51-.31A23.09,23.09,0,0,1,36.77,7l.56.4a23.62,23.62,0,0,1-1,3.29Zm.75-2.42,0,0-1,.71.66.46Z"/><path class="cls-1" d="M29,7.07,28.4,7l-.11-.77L27.2,6l-.33.7-.57-.06A24.76,24.76,0,0,1,27.8,3.6c.18,0,.35.06.51.07a.19.19,0,0,1,.2.19h0c.08.48.19,1,.26,1.43s.12,1,.18,1.58A1.32,1.32,0,0,1,29,7.07ZM27.42,5.5l.78.12A7.46,7.46,0,0,0,28,4.46Z"/><path class="cls-1" d="M15.14,5.61l.56-.27a1,1,0,0,1,.1.16L16.48,7a3.72,3.72,0,0,0,.21.39.58.58,0,0,0,.8.17.86.86,0,0,0,.14-.13A.47.47,0,0,0,17.69,7a2.82,2.82,0,0,0-.19-.51c-.17-.46-.35-.92-.54-1.37a.79.79,0,0,0-.08-.23l.59-.27c0,.06.05.09.07.13l.63,1.79A2.72,2.72,0,0,1,18.3,7a.85.85,0,0,1-.37.86,1.68,1.68,0,0,1-.77.31.88.88,0,0,1-.83-.37A3.3,3.3,0,0,1,16,7.31c-.28-.51-.54-1.07-.81-1.61Z"/><path class="cls-1" d="M6.27,14l.46.28-.51.91,2.37,1.23-.27.57-2.4-1.13-.44,1L5,16.58A17.37,17.37,0,0,1,6.27,14Z"/><path class="cls-1" d="M40.33,10.07l-1.23.26a3.14,3.14,0,0,0-.86.24,3.47,3.47,0,0,0-.65.62l-.33.35-.43-.38L37,11c.15-.16.28-.34.45-.51a1.2,1.2,0,0,0,.37-.75c.07-.56.16-1.12.24-1.68a2.38,2.38,0,0,1,.56.43.2.2,0,0,1,0,.15c-.06.38-.14.76-.21,1.15V9.9l.36-.1.88-.26a.25.25,0,0,1,.26.07C40,9.76,40.17,9.9,40.33,10.07Z"/><path class="cls-1" d="M9.44,10.52l-.64.72-.42-.34A14.6,14.6,0,0,1,10.21,9l.36.4L9.91,10l1.88,1.89-.4.43Z"/><path class="cls-1" d="M41.23,17.21l2.93-1.34.31.69-3,1.24Z"/><path class="cls-1" d="M21.23,3.65l.64-.08.43,3.18-.51.09c-.12-.51-.19-1-.27-1.58S21.32,4.2,21.23,3.65Z"/><path class="cls-1" d="M27,32.63a2.56,2.56,0,0,1-1.48,1.44,1.69,1.69,0,0,0-2.18,0,2.55,2.55,0,0,1-1.61-2,4,4,0,0,1,.47-2.39c.14-.27.3-.53.46-.78A4.82,4.82,0,0,0,23.42,27h0l.11.2.7,1.78a3.43,3.43,0,0,1,.12,1.85c-.08.45-.17.9-.27,1.34a.17.17,0,0,0,0,.1c0-.06.09-.11.09-.17a10.28,10.28,0,0,0,.61-1.54,2.45,2.45,0,0,0,0-1.26,12.94,12.94,0,0,0-.71-1.88,1.14,1.14,0,0,1-.1-.68,8.35,8.35,0,0,1,.48-1.71l.06-.07.06.32a6.65,6.65,0,0,0,.95,2.47c.29.43.53.86.8,1.29a5.92,5.92,0,0,1,.78,1.83A3.31,3.31,0,0,1,27,32.63Z"/><path class="cls-1" d="M25.22,37.67a4.06,4.06,0,0,1-.48.45.41.41,0,0,1-.51,0,2,2,0,0,1-.7-.86.54.54,0,0,1,0-.43c.08-.15.16-.29.23-.45a1.58,1.58,0,0,0,.09-.31c0-.25.07-.51.1-.76a.41.41,0,0,1,.4-.37h.22c.4,0,.53.14.57.54a1.67,1.67,0,0,1,.05.51h0a.68.68,0,0,0,.15.58A.82.82,0,0,1,25.22,37.67Z"/></g></g></g></g></svg>