<svg xmlns="http://www.w3.org/2000/svg" viewBox="0 0 86.53 60.12"><defs><style>.cls-1{fill:#dda139;}</style></defs><g id="Layer_2" data-name="Layer 2"><g id="Logo"><path class="cls-1" d="M35.37,24.44c-.08-.43-.11-.87-.19-1.3a.79.79,0,0,0-.84-.74,4.69,4.69,0,0,0-.53,0c-.66,0-.73.08-.8.76-.06.5-.13,1-.2,1.49-.11.74-.23,1.47-.36,2.31a7.23,7.23,0,0,0,2.43-1.34A1.2,1.2,0,0,0,35.37,24.44Z"/><path class="cls-1" d="M11,48c.62-.08,1.23-.17,1.83-.3s1.31-.34,2-.54a.92.92,0,0,0,.11-.32c.19-1.22.37-2.43.56-3.65s.4-2.61.61-3.91.45-2.65.69-4a1.49,1.49,0,0,0-.53-1.44,2.18,2.18,0,0,0-.09.29c-.21,1.28-.43,2.56-.63,3.84-.15,1-.28,2-.42,3s-.24,1.79-.4,2.67-.35,1.73-.52,2.52c-.85.23-1.59.47-2.34.63s-1.53.25-2.43.4l1.11,1.21C10.62,48.1,10.77,48,11,48Z"/><path class="cls-1" d="M74.33,28.83a2.08,2.08,0,0,1,.79,0,2.67,2.67,0,0,0,2-.32L78.56,28a28.76,28.76,0,0,0,3.63-1.63c1.13-.69,2.31-1.31,3.46-2,.27-.15.52-.32.88-.53l-9.2-1.69c-.07.71-.13,1.34-.18,2S77.07,25.35,77,26s0,1.26,0,1.9c-.71,0-1.41.25-1.79-.62l1.29-.06a4.17,4.17,0,0,1-.31-2.37c0-.8.06-1.59.1-2.38.06-1,.08-2,.2-3a21.89,21.89,0,0,0,.2-3.23c0-.25,0-.49,0-.73,0-.55.07-1.1.07-1.65a.92.92,0,0,0-.59-.86,1.73,1.73,0,0,0-.08.33c0,1,0,2-.08,2.92,0,.64-.07,1.28-.12,1.91-.09,1.32-.2,2.64-.28,4,0,.42,0,.85,0,1.26A4.08,4.08,0,0,0,76,26.23c-.53,0-1,0-1.39.08s-.45,0-.46-.35c0-1.11-.08-2.21-.09-3.31,0-1.42,0-2.84,0-4.26a5.18,5.18,0,0,1,.09-.78c.15-1.1.7-2.09.76-3.21,0-.58.15-1.15.14-1.91a11.87,11.87,0,0,0-1.31,1c-.55.55-1,1.22-1.55,1.73a10.63,10.63,0,0,0-1.57,1.65,1.05,1.05,0,0,1-.24.23c-.46.38-.94.73-1.39,1.12-.66.58-1.32,1.17-1.95,1.78a4.26,4.26,0,0,0-.78,1,5.91,5.91,0,0,1-1.67,1.95,5.08,5.08,0,0,0-.67.71l.68.77c.39-.32.73-.57,1-.86a3.45,3.45,0,0,0,.79-.88,10.58,10.58,0,0,1,3-3.26c.57-.49,1.16-.95,1.72-1.44a8.69,8.69,0,0,0,.66-.7.43.43,0,0,1,0,.43,7.35,7.35,0,0,1-1.44,2,3.47,3.47,0,0,0-.33.41c-.77.91-1.48,1.87-2.33,2.7A24,24,0,0,0,65.4,25c.4.48.81.93,1.16,1.43.19.26.25.62.44.88a13.34,13.34,0,0,1,2,3.62,2.34,2.34,0,0,0,1.2,1.35,1,1,0,0,1,.33.29c.16.21.28.45.44.66.3.42.6.84.95,1.31h-3l-.62-.89c.46-.07.78-.11,1.09-.18s.62-.15,1-.26l-.66-.89-2.46.49A8.33,8.33,0,0,0,67,32c-.37-.69-.39-1.5-.9-2.13a9.42,9.42,0,0,1-1.25-2.18,7.87,7.87,0,0,0-.72-1c0,.36,0,.6,0,.84,0,1.08-.09,2.16-.11,3.24s0,2.26,0,3.39c0,.22,0,.44,0,.64a3.28,3.28,0,0,1-1.76-.14,4.06,4.06,0,0,1-1-2.06c.24.2.39.43.58.47.52.09,1.06.11,1.62.16a2.62,2.62,0,0,0,0-.31L63.55,28c0-.55,0-1.11,0-1.66s-.22-.83-.65-1.15v.41c0,2-.07,4.07-.11,6.1,0,.17,0,.34-.06.53l-1.81-.12a23.09,23.09,0,0,0,.28-5c0-1.48-.05-3-.07-4.45,0-.77,0-1.55,0-2.32a6.84,6.84,0,0,1,0-.79c.17-1.23.36-2.45.52-3.67a.84.84,0,0,1,.36-.59,2.78,2.78,0,0,1,1.87-.54,1.92,1.92,0,0,1,.32.05,18.11,18.11,0,0,0-1,6.15,1.65,1.65,0,0,0,.82-1.58,5.57,5.57,0,0,1,.2-1.56c.13-.6.33-1.19.51-1.78a1.84,1.84,0,0,0,.07-.95,1.62,1.62,0,0,1,.75,1.43c-.08.68-.2,1.35-.33,2a2.21,2.21,0,0,0,0,1.11c.79-.68,1.75-1,2.36-1.75C67.13,16.05,63,5.55,62.6,5l-.38.71c-.89,1.66-1.75,3.33-2.67,5s-1.86,3.22-2.79,4.83a3.33,3.33,0,0,0-.48,1.39l2.14-.2c-.31.79-.57,1.46-.84,2.13a.5.5,0,0,1-.49.38,9,9,0,0,0-2.69.66A1.88,1.88,0,0,0,53.08,21c-.26.7-.48,1.42-.67,2.14A11.12,11.12,0,0,0,52.08,26a3.34,3.34,0,0,0,1.65,2.93,5.29,5.29,0,0,0,3.51,1,1.29,1.29,0,0,1,1.5.84,1.75,1.75,0,0,1,.33,1.05c-.08.57-.17,1.14-.21,1.71a.76.76,0,0,1-.36.59,2.89,2.89,0,0,1-1.87.54,4.55,4.55,0,0,1-3.33-1.83,4.15,4.15,0,0,0,.8.13,9.72,9.72,0,0,1,2.62.34,3.13,3.13,0,0,0,1.46,0c0-.25,0-.47,0-.68a2.23,2.23,0,0,1,.15-.91c.34-.59.09-1-.3-1.37-.7.56-.37,1.39-.62,2.13-.52,0-1-.07-1.57-.15A12.31,12.31,0,0,0,53.45,32a2.1,2.1,0,0,1-1.58-.72,7.36,7.36,0,0,1-1-1.9,7.6,7.6,0,0,1-.67-4.89,14,14,0,0,1,1.11-3.8,7.31,7.31,0,0,1,1.2-1.81,16.59,16.59,0,0,1,1.83-1.48,19.66,19.66,0,0,0-1-2.3c-1-1.73-2.17-3.4-3.24-5.11a5.82,5.82,0,0,1-.55-1.12C48.65,6.59,47.8,4.29,47,2c-.06-.17-.15-.33-.28-.61C45.35,4.24,44.09,7,42.81,9.73s-2.51,5.53-3.89,8.39c-.46-1-.84-1.78-1.24-2.59-.82-1.69-1.6-3.41-2.5-5.06s-2-3.44-3-5.17A7.89,7.89,0,0,0,30.8,3.53c-.52-.51-1-1.07-1.51-1.59S28,.69,27.29,0c-.66,3.18-1.32,6.33-2,9.48s-1.3,6.34-2,9.59l-.71-.57c-.36-.29-.72-.6-1.1-.85-2.35-1.54-4.7-3.08-7.07-4.61a17.73,17.73,0,0,0-2.34-1.38c-3.42-1.55-6.88-3-10.32-4.55-.13-.06-.27-.1-.56-.21L1.88,8c.83,1.26,1.73,2.47,2.46,3.78C6.93,16.35,9.45,21,12,25.59a3.83,3.83,0,0,1,.2.49c-2,1.53-4,3-6,4.53S2.07,33.4,0,34.92l.35.15c1.57.54,3.14,1.1,4.71,1.61s3.25,1,4.88,1.51a6.17,6.17,0,0,0,.62.11,14.49,14.49,0,0,1,.26-1.66,27.24,27.24,0,0,0,1-7.18,1.23,1.23,0,0,1,0-.33,22.51,22.51,0,0,0,.69-4.1c0-1,.22-1.93.25-2.9a1.06,1.06,0,0,1,.64-1.05,11,11,0,0,1,1.5-.51,15.19,15.19,0,0,0,3.33-.77s.07,0,.15.06c-.13.74-.25,1.5-.4,2.26-.27,1.36-.57,2.71-.84,4.07-.22,1.1-.44,2.2-.64,3.31,0,.19,0,.4,0,.6a5.21,5.21,0,0,1-.08.55,6,6,0,0,0,1.25-3c.14-.82.35-1.63.51-2.45.24-1.21.46-2.43.7-3.64a2.2,2.2,0,0,1,.16-.4,5.27,5.27,0,0,1,1.19,2.37.49.49,0,0,1,0,.26c-.11.42-.24.85-.35,1.27s-.25,1-.42,1.66a8.73,8.73,0,0,0,1.09-.89c.57-.64,1.09-1.33,1.63-2l2.09-2.58c.48-.6.95-1.21,1.45-1.8.28-.34.42-.33.66,0a5.65,5.65,0,0,1,.76,1.16c.14.37.67.63.42,1.11a9.92,9.92,0,0,1-.75,1.08,2.62,2.62,0,0,1-.25.22c-.28.25-.55.51-.82.77-.43.41-.84.85-1.29,1.23a10.31,10.31,0,0,0-2.65,2.66.93.93,0,0,1-.13.15C20.87,28.93,20.09,30,19.33,31a.76.76,0,0,0-.14.54,7,7,0,0,0,.42,1c.25-.39.45-.71.67-1,.53-.73,1.13-1.42,1.61-2.18a12.72,12.72,0,0,1,3.27-3.43,9.94,9.94,0,0,0,1.06-1l2-2.1c0,.33.19.64.09.8a15.92,15.92,0,0,1-1.25,1.79c-.84,1.08-1.73,2.13-2.58,3.2-.72.89-1.41,1.81-2.14,2.7S21,32.92,20.32,33.75l.33.52c.39.56.81,1.1,1.17,1.67a11.7,11.7,0,0,1,.54,1.13,7,7,0,0,1,.41.82,14.8,14.8,0,0,0,1.87,3.7c.39.59.78,1.18,1.16,1.78-.23,0-.46.12-.7.15a8.14,8.14,0,0,0-2.37.53c-.55.26-1.13.45-1.76.69-.2-.66-.41-1.29-.59-1.92-.24-.85-.45-1.7-.7-2.55-.15-.51-.32-1-.5-1.5A5.39,5.39,0,0,0,18.34,37l-.06.79c-.05.48-.09,1-.14,1.44-.08.84-.18,1.67-.25,2.5-.12,1.41-.26,2.81-.34,4.22-.05.86,0,1.72,0,2.59,0,.21,0,.43,0,.69-.54.17-1,.35-1.54.48-1.09.29-2.18.54-3.27.82-.54.14-.57.14-.86-.33s-.42-.69-.69-1.15c-1.25,3.19-2.45,6.24-3.68,9.39C13.11,55,18,50.71,23.05,46.66c-.18-.55-.7-.72-1-1.11,1.33-.81,2.88-.87,4.36-1.24a.52.52,0,0,0,.54-.14,6.55,6.55,0,0,1,.55-.39c.16.22.31.38.43.57l3.61,5.72c.95,1.52,1.83,3.09,2.84,4.57,1.18,1.74,2.46,3.41,3.7,5.11a3.42,3.42,0,0,0,.38.37,150.71,150.71,0,0,1,4-18.37l.56.53c1.5,1.48,3,3,4.5,4.43,1.91,1.84,3.87,3.63,5.79,5.47s3.81,3.71,5.72,5.56a2.27,2.27,0,0,0,.38.25c0-.23,0-.38,0-.53-.2-1.87-.41-3.74-.61-5.61-.15-1.36-.39-2.72-.43-4.09-.08-2.68,0-5.36,0-8a2.57,2.57,0,0,1,.11-.47,71.63,71.63,0,0,0,10.94,9.34c0-2.17,0-4.24,0-6.31S69,38.12,68.88,36l3.56.43,3.49.4c1.17.14,2.33.29,3.5.39s2.28.31,3.54.31a36.68,36.68,0,0,0-6-4.74c-.85.45-1.8.46-2.16,0a2.07,2.07,0,0,0,1.78-1.47,1.34,1.34,0,0,0-.44-1.35,3,3,0,0,1-1.3,1.69c-.46.28-1.13.2-1.27-.19a3.63,3.63,0,0,1-.24-1.76A.88.88,0,0,1,74.33,28.83Zm-36-6.21A3.2,3.2,0,0,1,39,25.54a14.31,14.31,0,0,1-2,3.87,4.05,4.05,0,0,1-2.17,1.29c0-.23-.12-.46-.15-.69-.1-.62-.08-.59.5-.92A7.9,7.9,0,0,0,36.85,28a15.46,15.46,0,0,0,1.61-2,1.31,1.31,0,0,0,.22-.8A5.47,5.47,0,0,0,38.27,23c0-.1-.06-.2-.09-.3ZM34.55,35.76c-.28-1.59-.6-3.16-.91-4.74a2,2,0,0,0-.15-.38,10.59,10.59,0,0,0-1.49.82c-.2.15-.25.54-.31.83-.19.94-.35,1.9-.52,2.85-.07.41-.15.83-.18,1.24-.08,1.21-.14,2.42-.23,3.63a2,2,0,0,1-.18.7.63.63,0,0,1-.37.31c-.53.12-1.08.19-1.69.29L28,40.38,29.18,40c.49-3.2,1-6.36,1.46-9.5L33.3,30,33,29l-3,.57a5.52,5.52,0,0,0-.14.58c-.17,1.2-.31,2.4-.51,3.59a35.3,35.3,0,0,0-.59,4.32s0,0,0,.07c-.11.91-.11.91-1,1.13l-.32.08c-.6.16-.83,0-.83-.6s.06-1.41.1-2.12a25.78,25.78,0,0,1,.64-3.9,8.36,8.36,0,0,0,.14-1.12A32.94,32.94,0,0,1,28.23,27c.2-.88.24-1.79.36-2.68.17-1.25.34-2.49.5-3.74a1.21,1.21,0,0,0,0-.19A1.36,1.36,0,0,1,30.47,19c.68-.07,1.37-.05,2.05-.12a4.84,4.84,0,0,1,2.91.73,4.23,4.23,0,0,1,2.43,3.05,14.79,14.79,0,0,1,.19,1.76,1.81,1.81,0,0,1-.55,1.18c-.33.41-.67.81-1,1.21a2.16,2.16,0,0,1-.38.36c-.61.39-1.22.77-1.85,1.14a.38.38,0,0,0-.2.49c.24,1,.47,2,.68,3A35.46,35.46,0,0,0,36.13,36c.08.23.14.46.21.66l-1.1.62A2.59,2.59,0,0,1,34.55,35.76ZM37,39.34,36.18,38l.44-.23.5-.24.73,1.35Zm8.26-8.15-2.1.41C42.67,34,41.73,36.39,41.43,39c-.46,0-.89,0-1.33,0a.43.43,0,0,1-.33-.17c-.32-.44-.61-.91-1-1.44l1-.07c.09-.25.16-.52.27-.78.44-1,.93-2,1.33-3a10.7,10.7,0,0,0,.47-1.79c.12-.62.17-.67.78-.75.8-.11,1.6-.27,2.38-.41,0-.09,0-.13,0-.17-.12-.74-.26-.85-1-.73L41.76,30c-.41.06-.42.38-.49.69-.13.6-.27,1.2-.45,1.79-.11.35-.33.67-.47,1-.4.93-.79,1.87-1.22,2.88-.44,0-.92,0-1.4,0a.57.57,0,0,1-.48-.77c.41-1.3.76-2.62,1.29-3.87s.85-2.41,1.23-3.63c.16-.53.4-1,.59-1.54.12-.35.25-.71.34-1.07.38-1.47.7-3,1.14-4.41A8.52,8.52,0,0,1,43,18.32a6.66,6.66,0,0,0,.53-1.07c.51.18.47.61.52,1a30.63,30.63,0,0,0,1.33,5.52,48.88,48.88,0,0,1,1.72,5.68c.15.69.27,1.38.44,2.07.12.51.31,1,.46,1.51s.35,1.22.53,1.88l-2.28.42C46,34,45.63,32.58,45.3,31.19Zm2.14,6.25a5,5,0,0,1-.8-1.31c.35,0,.64,0,.92,0s.3-.08.45-.09c1.23-.15,1.16-.36,1.34,1ZM59.09,19.83l-.74,1.89a17.48,17.48,0,0,1-2.26.38,3.32,3.32,0,0,0-2.66,1.69,4.42,4.42,0,0,1-.34.39,2.22,2.22,0,0,1,0-.47c.11-.43.22-.85.36-1.27a2.36,2.36,0,0,1,1.65-1.67,10.13,10.13,0,0,1,2.62-.63.71.71,0,0,0,.47-.37c.21-.37.36-.78.55-1.19C59.34,19.15,59.35,19.2,59.09,19.83Z"/><path class="cls-1" d="M77.66,14.05c0,.36,0,.73,0,1.09l.15,0c1.41-2.26,2.39-4.75,3.65-7.09L81.33,8l-6.14,3.85a3.71,3.71,0,0,0,.5.13A2.14,2.14,0,0,1,77.66,14.05Z"/><path class="cls-1" d="M34.33,21.2c-.48-.83-.76-1.09-1.48-1.23a9.9,9.9,0,0,0-1.45-.1c-.27,0-.38.17-.41.42-.12,1.07-.26,2.14-.39,3.21s-.24,2.14-.35,3.21c0,.24,0,.48-.05.72,0,.05.07.11.12.19l.58-.18c0-.53.06-1,.12-1.54.2-1.55.41-3.09.61-4.64,0-.26.14-.42.41-.41A4.13,4.13,0,0,1,34.33,21.2Z"/><path class="cls-1" d="M43.33,22.94c-.06.18-.09.25-.11.33a19.08,19.08,0,0,1-.8,3.4,3.56,3.56,0,0,0-.13.91h.77c.1-.32.22-.61.29-.91.14-.64.23-1.3.41-1.93A2.31,2.31,0,0,0,43.33,22.94Z"/><path class="cls-1" d="M44.23,25.58l-.64,2.06h1.17c-.14-.74-.27-1.4-.4-2.06Z"/></g></g></svg>