<svg xmlns="http://www.w3.org/2000/svg" viewBox="0 0 308.01 44.86"><defs><style>.cls-1{fill:#dda139;}</style></defs><g id="Layer_2" data-name="Layer 2"><g id="Logo"><g id="Layer_2-2" data-name="Layer 2"><g id="Layer_1-2" data-name="Layer 1-2"><path class="cls-1" d="M199.45,22c-2.74-2.83-2.75-5.28.06-8.58-2-1.45-2.13-3.64-2.1-5.88,0-1.18-.51-2.08-1.77-2S194,6.49,194,7.65v8.52c0,2.2,0,4.37-2.12,5.72,2.81,3.06,2.72,5.94.12,8.67,3.5,3.57,1.37,7.94,2.14,12.18-2,0-3.61.07-5.23-.06-.36,0-.92-.77-.94-1.22-.11-1.69-.06-3.4,0-5.1,0-1.28-.4-2.41-1.8-2.39s-1.69,1.12-1.74,2.32a23.19,23.19,0,0,1-.24,2.37,4.42,4.42,0,0,1-3.21,3.83,12.71,12.71,0,0,1-8.52-.06,4.83,4.83,0,0,1-3.45-4.24,17.45,17.45,0,0,1-.12-2V9.22c0-6.25,1.67-7.9,7.9-7.88a13.11,13.11,0,0,1,3.06.27c3.08.71,4.55,2.5,4.61,5.67.06,3,.08,6,0,9,0,1.43.57,2.28,1.89,2.27s1.64-1.08,1.65-2.32c0-3.28,0-6.58.24-9.87.2-2.88,1.68-4.51,4.56-4.88a21.07,21.07,0,0,1,6.09.11c3.06.51,4.34,2.19,4.62,5.25,0,.56-.11,1.25.15,1.67.37.6,1.09,1.43,1.59,1.39a2.84,2.84,0,0,0,1.74-1.43c.35-.64.15-1.44.25-2.17.36-2.73,1.62-4.35,4.32-4.74a20.94,20.94,0,0,1,6.42,0c3.06.51,4.52,2.36,4.59,5.47.11,3.52,0,7,0,10.57a5,5,0,0,1-2.86,4.66c-1.81.95-3.52,2.1-5.31,3.08A2.29,2.29,0,0,0,213,27.73c.07,2.95,0,5.91,0,8.86,0,1.2.29,2.24,1.72,2.24s1.72-1,1.71-2.25c0-2.84,0-5.68,0-8.52,0-1.1.34-1.48,1.46-1.5,4.64-.12,4.67-.15,4.64,4.45,0,2.49-.07,5-.29,7.48a4.49,4.49,0,0,1-3.7,4.15,12.91,12.91,0,0,1-7.39,0c-3-.94-4.08-2.36-4.18-5.46-.07-2.84,0-5.68-.05-8.52,0-.45.16-1,0-1.34a14.65,14.65,0,0,0-1.62-1.9c-.58.65-1.59,1.25-1.67,2a54.13,54.13,0,0,0-.09,6.11c0,2.61,0,5.23,0,7.84,0,1-.33,1.39-1.36,1.44-4.72.25-4.72.28-4.72-4.38V27.66C197.44,24.64,197.59,24.24,199.45,22Zm-19-.06c-2-1.37-2.14-3.34-2.15-5.37,0-2.95,0-5.9,0-8.86,0-1.25-.37-2.22-1.75-2.21s-1.68,1-1.68,2.13v29c0,1.19.32,2.23,1.75,2.22s1.68-1,1.66-2.13c0-2.31,0-4.59,2.17-6.07-2.46-2.22-3-5.65,0-8.67Zm32.39-2.42c3.18-.9,3.62-1.45,3.62-4.37V7.7c0-1.23-.42-2.21-1.79-2.18S213,6.54,213,7.67c.05,2.2-.15,4.31-2.21,5.84C213,15.11,213.25,17.21,212.85,19.54Zm-9-2.27,0,.65c1.47,1,1.63,1,2.95-.8Zm-19,8.57v.6c.89.8,1.75,1,2.57-.6Z"/><path class="cls-1" d="M260.46,24.62v1.84c0,4.89,0,9.78,0,14.66,0,1.3-.33,1.79-1.71,1.79-4.37,0-4.38,0-4.37-4.26V9.86a27.73,27.73,0,0,1,.19-3.41c.35-3,1.74-4.58,4.7-5a20.2,20.2,0,0,1,5.6,0C268.38,2,269.92,4,269.94,8c.05,8.7,0,17.39,0,26.08,0,2.44,0,4.88,0,7.33,0,1.09-.35,1.53-1.47,1.5-5.65-.14-4.52.85-4.59-4.49-.06-3.29,0-6.58,0-9.88C263.94,26,263.4,25.35,260.46,24.62Zm3.46-5.25V7.83c0-1.2-.31-2.28-1.68-2.29s-1.8,1.1-1.8,2.36v7.65C260.44,18.1,261.06,18.71,263.92,19.37Z"/><path class="cls-1" d="M69.53,24.51V40.16c0,2.58,0,2.6-2.57,2.58-3.95,0-3.46.51-3.47-3.42q0-14.83,0-29.65a29.69,29.69,0,0,1,.2-3.4c.36-3.06,2-4.65,5.1-5,.22,0,.45,0,.68-.05,7.73-.35,9.83,1.53,9.65,9.1-.24,10.17-.08,20.34,0,30.51,0,1.53-.44,1.95-1.93,1.93-4.17,0-4.17,0-4.17-4.11V28.43C73,25.89,72.47,25.2,69.53,24.51Zm3.34-5.17a6.69,6.69,0,0,0,.14-.78V7.67c0-1.19-.31-2.25-1.72-2.25s-1.75,1-1.76,2.23V15c0,3,.09,3.17,3.34,4.37Z"/><path class="cls-1" d="M61,22V36.48c0,4.49-1.61,6.08-6.06,6.12-2.77,0-5.56,0-8.34,0-1.09,0-1.53-.33-1.53-1.45V3c0-1.21.37-1.74,1.69-1.68,3.17.15,6.36,0,9.52.3S61,3.71,61,7C61,12,61,17,61,22Zm-9.93,0v14.3c0,1.93.41,2.24,2.32,1.87,1.53-.3,1.5-1.47,1.5-2.63V8.5a8.69,8.69,0,0,0,0-1c-.21-1.63-1.4-1.67-2.66-1.7-1.42,0-1.13,1-1.13,1.78C51.05,12.38,51.06,17.2,51.06,22Z"/><path class="cls-1" d="M298.51,24.58v4.25c0,4.15,0,8.3,0,12.44,0,1.13-.3,1.61-1.53,1.63-4.56.08-4.56.12-4.55-4.36V8c0-4,1.47-6.07,4.81-6.55a20.27,20.27,0,0,1,5.61,0c3.43.51,5,2.41,5.09,5.95.07,11.3,0,22.61.07,33.91,0,1.21-.46,1.53-1.62,1.53-4.45.06-4.45.09-4.45-4.3V28.51C301.91,26,301.4,25.37,298.51,24.58Zm3.24-5.14a9,9,0,0,0,.18-1.27V7.78c0-1.2-.32-2.27-1.73-2.26s-1.69,1.07-1.68,2.27v7.33C298.48,18.17,298.48,18.17,301.75,19.44Z"/><path class="cls-1" d="M149.59,42.72v-2q0-18.57,0-37.15c0-1.59.36-2.23,2.1-2.11,2.83.21,5.68.05,8.51.21,3.53.2,5.26,1.89,5.29,5.38q.1,15.09,0,30.16c0,3.94-1.66,5.41-5.61,5.52C156.5,42.79,153.16,42.72,149.59,42.72Zm9.81-20.6V8.3c0-1.86-.67-2.38-2.49-2.43s-1.4,1.31-1.4,2.29q0,14.15,0,28.28c0,1.93,1.32,2.77,2.9,1.65a3.19,3.19,0,0,0,.94-2.32c.09-4.57,0-9.11.05-13.65Z"/><path class="cls-1" d="M289,24.31c0,5.56-.05,11.13,0,16.69,0,1.53-.51,1.93-2,1.91-4.16-.07-4.16,0-4.16-4.08V7.48c-.06-1.08-.51-1.95-1.68-1.95s-1.73.87-1.73,2V27.5c0,4.55,0,9.09,0,13.63,0,1.36-.42,1.76-1.76,1.76-4.36,0-4.36,0-4.36-4.23V9.18c0-6.23,1.68-7.88,7.91-7.86a13.7,13.7,0,0,1,2.71.15C287.4,2.13,289,4,289,7.59c.05,5.56,0,11.13,0,16.7Z"/><path class="cls-1" d="M146.23,24.31c0,5.61,0,11.24,0,16.86,0,1.38-.44,1.74-1.76,1.73-4.36,0-4.36,0-4.36-4.25v-30c0-1.31.33-3.09-1.66-3.12s-1.74,1.7-1.75,3.06c0,10.79,0,21.58,0,32.36,0,1.49-.39,2-1.91,1.94-4.19-.07-4.2,0-4.19-4.23V9.38c0-6.45,1.64-8.07,8.08-8a12.85,12.85,0,0,1,2.7.23c3.25.72,4.74,2.55,4.76,5.89,0,5.61,0,11.22,0,16.87Z"/><path class="cls-1" d="M105.49,24.52c0,.64-.09,1.23-.1,1.83,0,4.88,0,9.77,0,14.65,0,1.35-.41,1.76-1.75,1.77-4.29,0-4.3.06-4.29-4.15V9.49a29,29,0,0,1,.15-3.23c.36-3,2.08-4.65,5.1-5,.22,0,.45,0,.68-.05,7.64-.33,9.82,1.47,9.63,9.1-.24,10.17-.08,20.33,0,30.5,0,1.49-.42,2-1.92,1.94-4.15-.05-4.15,0-4.15-4.12V28.45C108.92,25.9,108.34,25.22,105.49,24.52Zm3.2-5.19a5.11,5.11,0,0,0,.2-1V7.66c0-1.17-.34-2.24-1.76-2.22s-1.73,1.09-1.73,2.27v7.14c0,3.18,0,3.29,3.29,4.48Z"/><path class="cls-1" d="M97.13,24c0,5.68,0,11.36,0,17,0,1.23-.34,1.68-1.63,1.7-4.49,0-4.49.1-4.49-4.45V8.49C91,8,91.2,7.35,91,7c-.42-.62-1.11-1.48-1.66-1.47s-1.21.91-1.61,1.53c-.23.37-.06,1-.06,1.53,0,10.71,0,21.47,0,32.21,0,1.63-.53,2-2,2-4.07-.05-4.07,0-4.07-4v-29c0-1.19.09-2.38.18-3.57.18-2.54,1.59-4.27,4-4.62a22.07,22.07,0,0,1,7.07,0c3,.57,4.26,2.5,4.29,5.72,0,5.56,0,11.13,0,16.7Z"/><path class="cls-1" d="M241.48,11.54v5.1c0,.84-.3,1.3-1.18,1.24h-.15c-4.69.29-4.68.29-4.69-4.38,0-2,0-4,0-6,0-1.16-.47-2.07-1.77-2s-1.62.89-1.62,2c0,3.06-.08,6.12,0,9.18a2.82,2.82,0,0,0,1.22,1.79c2,1.31,4.08,2.48,6.12,3.71a4.2,4.2,0,0,1,2.1,3.85c0,3.75,0,7.5-.09,11.25-.1,3.38-1.53,5.14-4.85,5.5a24,24,0,0,1-7-.46A4.27,4.27,0,0,1,226.08,38c-.15-3.47-.13-6.93-.05-10.4,0-.39.75-1.06,1.2-1.1,4.8-.43,4.8-.4,4.8,4.39v5.8c0,1.14.36,2.09,1.67,2.12s1.73-.91,1.74-2c0-3.12.09-6.25,0-9.37a2.72,2.72,0,0,0-1.15-1.83c-2-1.35-4.17-2.55-6.26-3.8A4.11,4.11,0,0,1,226,18c0-3.64-.07-7.27,0-10.91s2.19-5.67,5.78-5.76a22.73,22.73,0,0,1,5.4.35c2.89.65,4.13,2.43,4.19,5.4,0,1.48,0,3,0,4.43Z"/><path class="cls-1" d="M10.31,10.6A23.63,23.63,0,0,1,10,7c.25-4,2.92-6.5,7.3-7A14.47,14.47,0,0,1,21.16.2c5,.85,7.31,4.28,6.41,9.21-.07.38-.15.76-.24,1.23l1.49.81c7.54,4,10.77,11.73,7.9,19.73-2.61,7.26-7.42,12.34-15.38,13.56a15.8,15.8,0,0,1-5.89-.38C7.62,42.49.91,34.87.09,26.86c-.6-5.89,2-10.46,6.54-14C7.76,12,9,11.39,10.31,10.6ZM16,12.39a64.12,64.12,0,0,0-6.19,2.9C4.71,18.36,2.58,23.6,4.25,28.84A17.86,17.86,0,0,0,14.07,40a11.49,11.49,0,0,0,10.07.18A16.37,16.37,0,0,0,34,25.77c.36-5-3.06-9.57-8.47-11.8C24.3,13.46,23,13,21.67,12.55c1.53-2.49,3.9-4.83,1.18-7.65-1.53-1.62-6.2-1.66-7.86-.07C12,7.65,14.59,10,16,12.39Z"/><path class="cls-1" d="M244.84,22.12c0-6.18,0-12.37,0-18.56,0-1.45.35-2,1.89-1.95,4.23.07,4.23,0,4.23,4.16,0,11.69,0,23.38,0,35.07,0,1.68-.51,2.11-2.13,2.07-4-.1-4,0-4-4.08Z"/><path class="cls-1" d="M121.29,1.66c1.83,0,3.41-.07,5,0,.36,0,.74.62,1,1s0,.67,0,1c0,12.33,0,24.65,0,37,0,1.71-.43,2.27-2.19,2.21-3.84-.13-3.85,0-3.85-3.86V1.66Z"/><path class="cls-1" d="M16.6,20.8c0-1.19,0-2.38,0-3.57A2.11,2.11,0,0,1,18.84,15a2.09,2.09,0,0,1,2.28,1.87,1.93,1.93,0,0,1,0,.34c.07,2.43.08,4.87,0,7.3a2.06,2.06,0,0,1-1.95,2.18,2.29,2.29,0,0,1-.37,0,2.11,2.11,0,0,1-2.2-2.29C16.57,23.17,16.6,22,16.6,20.8Zm2,4,.51,0v-8h-.51Z"/></g></g></g></g></svg>