<svg xmlns="http://www.w3.org/2000/svg" viewBox="0 0 140.03 50.1"><defs><style>.cls-1{fill:#dda139;}</style></defs><g id="Layer_2" data-name="Layer 2"><g id="Logo"><g id="TmcUpi.tif"><path class="cls-1" d="M140,27.12a24.17,24.17,0,0,1-.56,3.17,12.75,12.75,0,0,1-4.68,7.23,11.74,11.74,0,0,1-5.65,2.09,13.48,13.48,0,0,1-6.39-.7,5.85,5.85,0,0,1-1.86-1,.84.84,0,0,0-.09.57V49.4c0,.69,0,.69-.7.69-1.24,0-2.47,0-3.7,0-.47,0-.65-.11-.64-.61q0-18.78,0-37.55c0-.43.11-.6.57-.59,1.31,0,2.62,0,3.94,0,.4,0,.55.14.53.53s0,1,0,1.53c.2.06.26-.09.34-.17a9.24,9.24,0,0,1,6.13-2.38,13.23,13.23,0,0,1,6.38,1.3,11.1,11.1,0,0,1,5.73,7.4,25.83,25.83,0,0,1,.65,3.82Zm-19.22-1.68c0,2.42,0,4.84,0,7.25a1.58,1.58,0,0,0,.92,1.62c.15.08.3.18.46.26a8.71,8.71,0,0,0,5.08.81,7.55,7.55,0,0,0,7-5.89,17.54,17.54,0,0,0,0-8.87A6.61,6.61,0,0,0,132,16.94c-2.48-2-7.45-2.89-10.8.11a1,1,0,0,0-.39.86C120.82,20.42,120.81,22.93,120.81,25.44Z"/><path class="cls-1" d="M64.26,37.84V49.41c0,.67,0,.68-.66.68-1.25,0-2.5,0-3.75,0-.48,0-.63-.14-.63-.63,0-5,0-10,0-15V12.07c0-.71,0-.71.72-.71H63.6c.65,0,.66,0,.66.68,0,.32,0,.64,0,1,0,.12-.06.28.07.35s.23-.08.32-.16A8.36,8.36,0,0,1,69.13,11c3.94-.52,7.59.16,10.58,3A11.51,11.51,0,0,1,83,20.2a20.71,20.71,0,0,1-.44,11.31,11.26,11.26,0,0,1-5.86,6.93,13.37,13.37,0,0,1-11.22.16A5.75,5.75,0,0,1,64.26,37.84Zm0-12.4c0,2.37,0,4.74,0,7.1a1.8,1.8,0,0,0,1.16,1.91l.17.09a8.47,8.47,0,0,0,5.26.82c3.28-.44,5.62-2.06,6.66-5.27a17.22,17.22,0,0,0,.31-8.87A7.17,7.17,0,0,0,75.56,17c-2.34-2-7.44-3-10.86,0a1.1,1.1,0,0,0-.43.9Q64.29,21.68,64.28,25.44Z"/><path class="cls-1" d="M105,12.72a1.28,1.28,0,0,0,.07-.62c0-3.81,0-7.62,0-11.43,0-.66,0-.66.67-.66,1.26,0,2.53,0,3.8,0,.45,0,.61.16.56.59,0,.11,0,.22,0,.33V38.75c0,.27-.1.42-.39.41h-4.23c-.32,0-.42-.16-.41-.45V37.25a8.49,8.49,0,0,1-2.65,1.63c-4.23,1.36-8.29,1.26-11.92-1.63a11.74,11.74,0,0,1-4.12-6.92,18,18,0,0,1,.7-10.79,14.31,14.31,0,0,1,6.43-7.45,11.13,11.13,0,0,1,6.66-1.17A8.68,8.68,0,0,1,105,12.72Zm.07,12.82v-7.2a1.07,1.07,0,0,0-.17-.73,6.16,6.16,0,0,0-7.29-2.18,8.06,8.06,0,0,0-5.45,5.08,14.06,14.06,0,0,0-.19,9.9,6.75,6.75,0,0,0,3.43,4,10.13,10.13,0,0,0,3.73,1,7.61,7.61,0,0,0,5.29-1.5,1.46,1.46,0,0,0,.66-1.34C105.08,30.24,105.1,27.89,105.1,25.54Z"/><path class="cls-1" d="M19.71,46c-.12-.16-.06-.34-.06-.5,0-2.4,0-4.8,0-7.2a11.86,11.86,0,0,1,1.48-5.8,1.08,1.08,0,0,0,0-1.07,10.66,10.66,0,0,0-2.9-3.72c-1.43-1.21-2.9-2.37-4.34-3.57a13.7,13.7,0,0,1-1.84-1.89,5.81,5.81,0,0,1-1.18-5.61,46.42,46.42,0,0,1,2.73-7.06c0-.07.06-.15.2-.17,0,.3,0,.61,0,.91a7.12,7.12,0,0,0,2.89,5.46c2,1.71,4.15,3.32,6,5.18a6.26,6.26,0,0,1,2.1,4.43,9.06,9.06,0,0,1-.32,2.47l1.9-1.72c2.32-2,4.68-4,6.81-6.28a26.25,26.25,0,0,0,4.76-6.47,21.36,21.36,0,0,0,.84-2.1.7.7,0,0,1,.1.5c0,2.22,0,4.45,0,6.67a15.79,15.79,0,0,1-3.33,9.19A31.85,31.85,0,0,1,30.39,33a55.36,55.36,0,0,0-7.54,7.38,17.53,17.53,0,0,0-3,5.28C19.85,45.8,19.85,45.93,19.71,46Z"/><path class="cls-1" d="M.1,11.23a16.55,16.55,0,0,0,1.63,3.56,31.17,31.17,0,0,0,4.55,5.63c2.55,2.59,5.39,4.87,8.12,7.41a12.6,12.6,0,0,1-.3-2c0-.32-.1-.75.13-.9s.46.26.68.43a51.23,51.23,0,0,1,3.94,3.29c.35.34.44.59.08,1a6.78,6.78,0,0,0-1.16,2,.74.74,0,0,0,.05.72,12.43,12.43,0,0,1,1.55,6.26c0,2.29,0,4.58,0,6.87a.79.79,0,0,1-.06.5c-.15,0-.14-.16-.18-.26a18.75,18.75,0,0,0-3.89-6.39A68.17,68.17,0,0,0,8,32.48a24.85,24.85,0,0,1-6.42-7.81A14.68,14.68,0,0,1,0,18.1C0,16,0,13.94,0,11.86A1.31,1.31,0,0,1,.1,11.23Z"/><path class="cls-1" d="M45.28,16.42q0-7.88,0-15.74c0-.67,0-.67.66-.67H49.6c.66,0,.66,0,.66.67V29.76a9.82,9.82,0,0,0,.18,2.1,4.16,4.16,0,0,0,3.81,3.32c.7.07.7.07.7.78v3.27c0,.25,0,.5-.36.49A10.92,10.92,0,0,1,48,37.9a7,7,0,0,1-2.65-4.83,11.67,11.67,0,0,1-.11-1.87C45.29,26.27,45.28,21.35,45.28,16.42Z"/><path class="cls-1" d="M25.18,9.39c.16,0,.19.12.22.2a36.77,36.77,0,0,1,2.87,7.81,5.17,5.17,0,0,1-.63,3.79,11.66,11.66,0,0,1-2.22,2.63c-.14.13-.32.33-.42,0-.58-2-2.05-3.25-3.52-4.52s-3.15-2.62-4.72-3.94a7,7,0,0,1-2.57-6.44,3,3,0,0,1,.44-1.29C15.76,5.74,16.88,3.85,18,2c.06-.1.1-.24.28-.28.1.22,0,.44-.05.64a7.48,7.48,0,0,0,2.21,6.29c1.21,1.37,2.46,2.7,3.68,4.06.3.34.41.25.57-.12a6.19,6.19,0,0,0,.44-2.48A1.78,1.78,0,0,1,25.18,9.39Z"/><path class="cls-1" d="M20.74,1.7c.17,0,.21.18.28.3,1.1,1.84,2.19,3.68,3.3,5.52A3.28,3.28,0,0,1,24.83,9a9.13,9.13,0,0,1-.27,3c-.06.2-.13.52-.43.18-1.36-1.5-2.76-2.94-4.05-4.5a.83.83,0,0,1-.1-1.1,6.54,6.54,0,0,0,.76-4.54c0-.1,0-.19,0-.28A.18.18,0,0,1,20.74,1.7Z"/></g></g></g></svg>